<svg width="115" height="46" viewBox="0 0 115 46" fill="none" xmlns="http://www.w3.org/2000/svg">
<path d="M0.776 4.104C0.776 3.03733 1.18133 2.12 1.992 1.352C2.84533 0.583997 3.86933 0.199997 5.064 0.199997H34.056C34.056 2.76 33.608 4.63733 32.712 5.832C31.8587 6.984 30.4507 7.56 28.488 7.56H9.352V18.376H26.376C26.376 20.936 25.928 22.8133 25.032 24.008C24.1787 25.16 22.7707 25.736 20.808 25.736H9.352V39.496C9.352 41.6293 8.66933 43.1867 7.304 44.168C5.93867 45.1067 3.76267 45.576 0.776 45.576V4.104ZM37.2135 4.104C37.2135 3.03733 37.6188 2.12 38.4295 1.352C39.2828 0.583997 40.3068 0.199997 41.5015 0.199997H70.0455C70.0455 2.76 69.5975 4.63733 68.7015 5.832C67.8482 6.984 66.4402 7.56 64.4775 7.56H45.7895V18.696H62.8135C62.8135 21.256 62.3655 23.1333 61.4695 24.328C60.6162 25.48 59.2082 26.056 57.2455 26.056H45.7895V37.64H65.8215C67.7415 37.64 69.1282 38.2373 69.9815 39.432C70.8775 40.584 71.3255 42.44 71.3255 45H41.5015C40.3068 45 39.2828 44.6373 38.4295 43.912C37.6188 43.144 37.2135 42.2053 37.2135 41.096V4.104ZM81.814 45C80.662 45 79.6593 44.616 78.806 43.848C77.9527 43.08 77.526 42.1627 77.526 41.096V4.104C77.526 3.03733 77.9313 2.12 78.742 1.352C79.5953 0.583997 80.6193 0.199997 81.814 0.199997H99.03C103.126 0.199997 106.39 1.352 108.822 3.656C111.297 5.91733 112.534 8.968 112.534 12.808C112.534 14.6427 112.043 16.392 111.062 18.056C110.081 19.6773 108.779 20.936 107.158 21.832V22.024C109.377 22.792 111.126 24.0507 112.406 25.8C113.729 27.5493 114.39 29.5547 114.39 31.816C114.39 34.376 113.793 36.6587 112.598 38.664C111.403 40.6693 109.739 42.2267 107.606 43.336C105.473 44.4453 103.041 45 100.31 45H81.814ZM98.902 19.016C100.31 19.016 101.505 18.44 102.486 17.288C103.51 16.136 104.022 14.7493 104.022 13.128C104.022 11.3787 103.553 9.992 102.614 8.968C101.718 7.944 100.481 7.432 98.902 7.432H85.846V19.016H98.902ZM100.182 37.768C101.931 37.768 103.318 37.256 104.342 36.232C105.366 35.1653 105.878 33.7147 105.878 31.88C105.878 30.088 105.366 28.7013 104.342 27.72C103.361 26.696 101.974 26.184 100.182 26.184H85.846V37.768H100.182Z" fill="#FF4A4A"/>
</svg>
