<svg width="310" height="47" viewBox="0 0 310 47" fill="none" xmlns="http://www.w3.org/2000/svg">
<path d="M0.776 5.104C0.776 4.03733 1.18133 3.12 1.992 2.352C2.84533 1.584 3.86933 1.2 5.064 1.2H34.056C34.056 3.76 33.608 5.63733 32.712 6.832C31.8587 7.984 30.4507 8.56 28.488 8.56H9.352V19.376H26.376C26.376 21.936 25.928 23.8133 25.032 25.008C24.1787 26.16 22.7707 26.736 20.808 26.736H9.352V40.496C9.352 42.6293 8.66933 44.1867 7.304 45.168C5.93867 46.1067 3.76267 46.576 0.776 46.576V5.104ZM37.2135 5.104C37.2135 4.03733 37.6188 3.12 38.4295 2.352C39.2828 1.584 40.3068 1.2 41.5015 1.2H70.0455C70.0455 3.76 69.5975 5.63733 68.7015 6.832C67.8482 7.984 66.4402 8.56 64.4775 8.56H45.7895V19.696H62.8135C62.8135 22.256 62.3655 24.1333 61.4695 25.328C60.6162 26.48 59.2082 27.056 57.2455 27.056H45.7895V38.64H65.8215C67.7415 38.64 69.1282 39.2373 69.9815 40.432C70.8775 41.584 71.3255 43.44 71.3255 46H41.5015C40.3068 46 39.2828 45.6373 38.4295 44.912C37.6188 44.144 37.2135 43.2053 37.2135 42.096V5.104ZM81.814 46C80.662 46 79.6593 45.616 78.806 44.848C77.9527 44.08 77.526 43.1627 77.526 42.096V5.104C77.526 4.03733 77.9313 3.12 78.742 2.352C79.5953 1.584 80.6193 1.2 81.814 1.2H99.03C103.126 1.2 106.39 2.352 108.822 4.656C111.297 6.91733 112.534 9.968 112.534 13.808C112.534 15.6427 112.043 17.392 111.062 19.056C110.081 20.6773 108.779 21.936 107.158 22.832V23.024C109.377 23.792 111.126 25.0507 112.406 26.8C113.729 28.5493 114.39 30.5547 114.39 32.816C114.39 35.376 113.793 37.6587 112.598 39.664C111.403 41.6693 109.739 43.2267 107.606 44.336C105.473 45.4453 103.041 46 100.31 46H81.814ZM98.902 20.016C100.31 20.016 101.505 19.44 102.486 18.288C103.51 17.136 104.022 15.7493 104.022 14.128C104.022 12.3787 103.553 10.992 102.614 9.968C101.718 8.944 100.481 8.432 98.902 8.432H85.846V20.016H98.902ZM100.182 38.768C101.931 38.768 103.318 38.256 104.342 37.232C105.366 36.1653 105.878 34.7147 105.878 32.88C105.878 31.088 105.366 29.7013 104.342 28.72C103.361 27.696 101.974 27.184 100.182 27.184H85.846V38.768H100.182ZM137.089 5.104C137.089 3.99466 137.494 3.07733 138.305 2.352C139.115 1.584 140.139 1.2 141.377 1.2H158.465C163.073 1.2 166.635 2.416 169.153 4.848C171.713 7.28 172.993 10.6933 172.993 15.088C172.993 17.6053 172.481 19.7387 171.457 21.488C170.433 23.1947 168.875 24.56 166.785 25.584V25.776C170.539 27.44 172.417 30.5973 172.417 35.248V40.24C172.417 42.288 171.691 43.8667 170.241 44.976C168.79 46.0427 166.657 46.576 163.841 46.576V35.632C163.841 33.3707 163.393 31.7067 162.497 30.64C161.601 29.5733 160.235 29.04 158.401 29.04H145.537V40.24C145.537 42.3307 144.811 43.9093 143.361 44.976C141.953 46.0427 139.862 46.576 137.089 46.576V5.104ZM158.017 21.744C160.065 21.744 161.643 21.168 162.753 20.016C163.862 18.8213 164.417 17.1573 164.417 15.024C164.417 10.672 162.283 8.496 158.017 8.496H145.537V21.744H158.017ZM197.315 46.576C193.816 46.576 190.616 45.8933 187.715 44.528C184.814 43.12 182.51 41.2213 180.803 38.832C179.139 36.4427 178.307 33.84 178.307 31.024V16.112C178.307 13.296 179.139 10.7147 180.803 8.368C182.51 5.97866 184.814 4.10133 187.715 2.736C190.616 1.328 193.816 0.623997 197.315 0.623997C200.814 0.623997 204.014 1.328 206.915 2.736C209.859 4.10133 212.163 5.97866 213.827 8.368C215.534 10.7147 216.387 13.296 216.387 16.112V31.024C216.387 33.84 215.534 36.4427 213.827 38.832C212.163 41.2213 209.859 43.12 206.915 44.528C204.014 45.8933 200.814 46.576 197.315 46.576ZM197.315 39.088C200.515 39.088 203.075 38.3413 204.995 36.848C206.915 35.312 207.875 33.328 207.875 30.896V16.304C207.875 13.8293 206.915 11.8453 204.995 10.352C203.075 8.816 200.515 8.048 197.315 8.048C194.158 8.048 191.619 8.816 189.699 10.352C187.779 11.8453 186.819 13.8293 186.819 16.304V30.896C186.819 33.328 187.779 35.312 189.699 36.848C191.619 38.3413 194.158 39.088 197.315 39.088ZM240.253 46.576C236.754 46.576 233.554 45.8933 230.653 44.528C227.751 43.12 225.447 41.2213 223.741 38.832C222.077 36.4427 221.245 33.84 221.245 31.024V16.112C221.245 13.296 222.077 10.7147 223.741 8.368C225.447 5.97866 227.751 4.10133 230.653 2.736C233.554 1.328 236.754 0.623997 240.253 0.623997C243.751 0.623997 246.951 1.328 249.853 2.736C252.797 4.10133 255.101 5.97866 256.765 8.368C258.471 10.7147 259.325 13.296 259.325 16.112V31.024C259.325 33.84 258.471 36.4427 256.765 38.832C255.101 41.2213 252.797 43.12 249.853 44.528C246.951 45.8933 243.751 46.576 240.253 46.576ZM240.253 39.088C243.453 39.088 246.013 38.3413 247.933 36.848C249.853 35.312 250.812 33.328 250.812 30.896V16.304C250.812 13.8293 249.853 11.8453 247.933 10.352C246.013 8.816 243.453 8.048 240.253 8.048C237.095 8.048 234.557 8.816 232.637 10.352C230.717 11.8453 229.757 13.8293 229.757 16.304V30.896C229.757 33.328 230.717 35.312 232.637 36.848C234.557 38.3413 237.095 39.088 240.253 39.088ZM265.526 7.024C265.526 5.06133 266.294 3.504 267.83 2.352C269.366 1.15733 271.457 0.559998 274.102 0.559998L287.542 34.352L286.07 38.384L286.71 38.64L301.11 0.623997C303.713 0.623997 305.782 1.22133 307.318 2.416C308.897 3.568 309.686 5.12533 309.686 7.088V46.576C304.097 46.576 301.302 44.4853 301.302 40.304V19.824L303.478 13.936L302.774 13.68L291.062 44.272C290.763 44.9547 290.294 45.5093 289.654 45.936C289.057 46.3627 288.374 46.576 287.606 46.576C286.838 46.576 286.134 46.3627 285.494 45.936C284.897 45.5093 284.449 44.9333 284.15 44.208L272.438 13.616L271.734 13.872L273.846 19.76V40.304C273.846 44.4853 271.073 46.576 265.526 46.576V7.024Z" fill="#FF4A4A"/>
</svg>
