<svg width="174" height="47" viewBox="0 0 174 47" fill="none" xmlns="http://www.w3.org/2000/svg">
<path d="M0.776 5.104C0.776 3.99466 1.18133 3.07733 1.992 2.352C2.80267 1.584 3.82667 1.2 5.064 1.2H22.152C26.76 1.2 30.3227 2.416 32.84 4.848C35.4 7.28 36.68 10.6933 36.68 15.088C36.68 17.6053 36.168 19.7387 35.144 21.488C34.12 23.1947 32.5627 24.56 30.472 25.584V25.776C34.2267 27.44 36.104 30.5973 36.104 35.248V40.24C36.104 42.288 35.3787 43.8667 33.928 44.976C32.4773 46.0427 30.344 46.576 27.528 46.576V35.632C27.528 33.3707 27.08 31.7067 26.184 30.64C25.288 29.5733 23.9227 29.04 22.088 29.04H9.224V40.24C9.224 42.3307 8.49867 43.9093 7.048 44.976C5.64 46.0427 3.54933 46.576 0.776 46.576V5.104ZM21.704 21.744C23.752 21.744 25.3307 21.168 26.44 20.016C27.5493 18.8213 28.104 17.1573 28.104 15.024C28.104 10.672 25.9707 8.496 21.704 8.496H9.224V21.744H21.704ZM61.0025 46.576C57.5038 46.576 54.3038 45.8933 51.4025 44.528C48.5012 43.12 46.1972 41.2213 44.4905 38.832C42.8265 36.4427 41.9945 33.84 41.9945 31.024V16.112C41.9945 13.296 42.8265 10.7147 44.4905 8.368C46.1972 5.97866 48.5012 4.10133 51.4025 2.736C54.3038 1.328 57.5038 0.623997 61.0025 0.623997C64.5012 0.623997 67.7012 1.328 70.6025 2.736C73.5465 4.10133 75.8505 5.97866 77.5145 8.368C79.2212 10.7147 80.0745 13.296 80.0745 16.112V31.024C80.0745 33.84 79.2212 36.4427 77.5145 38.832C75.8505 41.2213 73.5465 43.12 70.6025 44.528C67.7012 45.8933 64.5012 46.576 61.0025 46.576ZM61.0025 39.088C64.2025 39.088 66.7625 38.3413 68.6825 36.848C70.6025 35.312 71.5625 33.328 71.5625 30.896V16.304C71.5625 13.8293 70.6025 11.8453 68.6825 10.352C66.7625 8.816 64.2025 8.048 61.0025 8.048C57.8452 8.048 55.3065 8.816 53.3865 10.352C51.4665 11.8453 50.5065 13.8293 50.5065 16.304V30.896C50.5065 33.328 51.4665 35.312 53.3865 36.848C55.3065 38.3413 57.8452 39.088 61.0025 39.088ZM103.94 46.576C100.441 46.576 97.2413 45.8933 94.34 44.528C91.4387 43.12 89.1347 41.2213 87.428 38.832C85.764 36.4427 84.932 33.84 84.932 31.024V16.112C84.932 13.296 85.764 10.7147 87.428 8.368C89.1347 5.97866 91.4387 4.10133 94.34 2.736C97.2413 1.328 100.441 0.623997 103.94 0.623997C107.439 0.623997 110.639 1.328 113.54 2.736C116.484 4.10133 118.788 5.97866 120.452 8.368C122.159 10.7147 123.012 13.296 123.012 16.112V31.024C123.012 33.84 122.159 36.4427 120.452 38.832C118.788 41.2213 116.484 43.12 113.54 44.528C110.639 45.8933 107.439 46.576 103.94 46.576ZM103.94 39.088C107.14 39.088 109.7 38.3413 111.62 36.848C113.54 35.312 114.5 33.328 114.5 30.896V16.304C114.5 13.8293 113.54 11.8453 111.62 10.352C109.7 8.816 107.14 8.048 103.94 8.048C100.783 8.048 98.244 8.816 96.324 10.352C94.404 11.8453 93.444 13.8293 93.444 16.304V30.896C93.444 33.328 94.404 35.312 96.324 36.848C98.244 38.3413 100.783 39.088 103.94 39.088ZM129.214 7.024C129.214 5.06133 129.982 3.504 131.518 2.352C133.054 1.15733 135.144 0.559998 137.79 0.559998L151.23 34.352L149.758 38.384L150.398 38.64L164.798 0.623997C167.4 0.623997 169.47 1.22133 171.006 2.416C172.584 3.568 173.374 5.12533 173.374 7.088V46.576C167.784 46.576 164.99 44.4853 164.99 40.304V19.824L167.166 13.936L166.462 13.68L154.75 44.272C154.451 44.9547 153.982 45.5093 153.342 45.936C152.744 46.3627 152.062 46.576 151.294 46.576C150.526 46.576 149.822 46.3627 149.182 45.936C148.584 45.5093 148.136 44.9333 147.838 44.208L136.126 13.616L135.422 13.872L137.534 19.76V40.304C137.534 44.4853 134.76 46.576 129.214 46.576V7.024Z" fill="#FF4A4A"/>
</svg>
